<?xml version="1.0"?>
<svg width="392.5" height="392.5" xmlns="http://www.w3.org/2000/svg" xmlns:svg="http://www.w3.org/2000/svg" preserveAspectRatio="xMidYMid meet" version="1">

 <g class="layer">
  <title>Layer 1</title>
  <g id="change1_1" transform="matrix(0.326895 0 0 0.301346 -0.248854 -0.294683)">
   <path d="m208.47,199.55l-196.23,0c0,-108.38 87.85,-196.23 196.23,-196.23l0,196.23zm0,0l0,196.22c108.37,0 196.22,-87.85 196.22,-196.22l-196.22,0zm-137.15,45.59c-24.83,24.82 -24.83,65.08 0,89.91c24.83,24.82 65.08,24.82 89.91,0c24.83,-24.83 24.83,-65.09 0,-89.91c-24.83,-24.83 -65.08,-24.83 -89.91,0zm275.81,-98.75c24.83,-24.83 24.83,-65.08 0,-89.91c-24.83,-24.83 -65.08,-24.83 -89.91,0s-24.83,65.08 0,89.91c24.83,24.83 65.08,24.83 89.91,0z" fill="inherit" id="svg_1"/>
  </g>
  <text fill="rgb(51, 51, 51)" font-family="Arial, sans-serif" font-size="70" id="svg_2" x="179.16" y="77.03">FitEz</text>
 </g>
</svg>